<svg width="35" height="37" viewBox="0 0 35 37" fill="none" xmlns="http://www.w3.org/2000/svg">
<g filter="url(#filter0_d)">
<path d="M16.2083 9.04168H18.7917C19.4768 9.04168 20.1339 9.31385 20.6184 9.79832C21.1028 10.2828 21.375 10.9399 21.375 11.625V12.9167H18.7917V11.625H16.2083V19.375H18.7917V18.0833H21.375V19.375C21.375 20.0602 21.1028 20.7172 20.6184 21.2017C20.1339 21.6862 19.4768 21.9583 18.7917 21.9583H16.2083C15.5232 21.9583 14.8661 21.6862 14.3817 21.2017C13.8972 20.7172 13.625 20.0602 13.625 19.375V11.625C13.625 10.9399 13.8972 10.2828 14.3817 9.79832C14.8661 9.31385 15.5232 9.04168 16.2083 9.04168ZM17.5 2.58334C19.1963 2.58334 20.8759 2.91744 22.443 3.56657C24.0101 4.21569 25.4341 5.16712 26.6335 6.36655C27.8329 7.56597 28.7843 8.98989 29.4335 10.557C30.0826 12.1241 30.4167 13.8038 30.4167 15.5C30.4167 18.9257 29.0558 22.2111 26.6335 24.6335C24.2111 27.0558 20.9257 28.4167 17.5 28.4167C15.8038 28.4167 14.1241 28.0826 12.557 27.4335C10.9899 26.7843 9.56597 25.8329 8.36655 24.6335C5.9442 22.2111 4.58334 18.9257 4.58334 15.5C4.58334 12.0743 5.9442 8.78889 8.36655 6.36655C10.7889 3.9442 14.0743 2.58334 17.5 2.58334ZM17.5 5.16668C14.7594 5.16668 12.1311 6.25536 10.1932 8.19324C8.25536 10.1311 7.16668 12.7594 7.16668 15.5C7.16668 18.2406 8.25536 20.8689 10.1932 22.8068C12.1311 24.7447 14.7594 25.8333 17.5 25.8333C20.2406 25.8333 22.8689 24.7447 24.8068 22.8068C26.7447 20.8689 27.8333 18.2406 27.8333 15.5C27.8333 12.7594 26.7447 10.1311 24.8068 8.19324C22.8689 6.25536 20.2406 5.16668 17.5 5.16668Z" fill="white"/>
</g>
<defs>
<filter id="filter0_d" x="-2" y="0" width="39" height="39" filterUnits="userSpaceOnUse" color-interpolation-filters="sRGB">
<feFlood flood-opacity="0" result="BackgroundImageFix"/>
<feColorMatrix in="SourceAlpha" type="matrix" values="0 0 0 0 0 0 0 0 0 0 0 0 0 0 0 0 0 0 127 0"/>
<feOffset dy="4"/>
<feGaussianBlur stdDeviation="2"/>
<feColorMatrix type="matrix" values="0 0 0 0 0 0 0 0 0 0 0 0 0 0 0 0 0 0 0.25 0"/>
<feBlend mode="normal" in2="BackgroundImageFix" result="effect1_dropShadow"/>
<feBlend mode="normal" in="SourceGraphic" in2="effect1_dropShadow" result="shape"/>
</filter>
</defs>
</svg>
