<svg width="220" height="220" viewBox="0 0 220 220" fill="none" xmlns="http://www.w3.org/2000/svg">
<g clip-path="url(#clip0)">
<path d="M201.472 131.106H195.725C191.93 117.061 173.732 92.9844 151.769 92.9844C149.829 93.0071 147.896 93.2131 145.994 93.5997C137.486 71.6272 120.433 46.8359 100.746 46.8359C85.6834 46.8359 72.1877 61.3731 62.8652 78.0141C61.7434 77.844 60.6105 77.7567 59.4759 77.7528C39.8477 77.7528 23.9562 102.96 23.9562 113.162C23.9562 114.304 24.2174 115.411 24.6024 116.5C20.6665 121.712 17.5899 127.126 15.5068 132.058C6.56931 134.599 0.020874 142.223 0.020874 151.343V152.206C0.020874 163.405 9.81087 172.473 21.8868 172.473H201.496C213.576 172.473 220.774 163.405 220.774 152.206V151.343C220.774 140.15 213.576 131.082 201.496 131.082" fill="#98CCE8"/>
<path fill-rule="evenodd" clip-rule="evenodd" d="M29.6863 125.859C25.8019 105.42 33.5947 89.9062 51.3253 80.3912C75.0372 67.6725 97.9619 70.5015 120.075 87.2559C131.972 73.805 146.431 67.9028 163.405 76.7509C178.093 84.3959 182.638 97.8709 180.661 114.392C184.408 114.728 187.787 114.89 191.128 115.402C215.029 119.029 228.099 148.247 214.72 168.807C213.056 171.368 208.766 173.578 205.7 173.578C141.271 173.86 76.8178 173.726 12.375 173.915C6.49345 173.946 3.93939 171.303 2.1622 166.263C-1.37499 156.267 1.1997 145.13 10.2678 137.694C15.7816 133.184 22.495 130.166 29.6759 125.859" fill="#E3F3FB"/>
</g>
<defs>
<clipPath id="clip0">
<rect width="220" height="220" fill="white"/>
</clipPath>
</defs>
</svg>
