<svg width="42" height="31" viewBox="0 0 42 31" fill="none" xmlns="http://www.w3.org/2000/svg">
<path d="M16.0043 0.625H37.6198C38.747 0.625 39.828 1.07277 40.625 1.8698C41.422 2.66683 41.8698 3.74783 41.8698 4.875V26.125C41.8698 27.2522 41.422 28.3332 40.625 29.1302C39.828 29.9272 38.747 30.375 37.6198 30.375H16.0043C14.8772 30.3748 13.7964 29.9268 12.9995 29.1298L0.872171 17.0024C0.473795 16.6039 0.25 16.0635 0.25 15.5C0.25 14.9365 0.473795 14.3961 0.872171 13.9976L12.9995 1.87025C13.7964 1.07317 14.8772 0.625241 16.0043 0.625ZM15.3073 28.25H39.7448V2.75H15.3073L2.55729 15.5L15.3073 28.25ZM29.9995 15.5L33.0043 18.5048C33.3914 18.9055 33.6056 19.4423 33.6007 19.9995C33.5959 20.5566 33.3724 21.0896 32.9784 21.4836C32.5844 21.8776 32.0514 22.1011 31.4943 22.1059C30.9371 22.1108 30.4003 21.8966 29.9995 21.5095L26.9948 18.5048L23.99 21.5095C23.794 21.7125 23.5595 21.8743 23.3003 21.9857C23.041 22.0971 22.7622 22.1557 22.48 22.1582C22.1979 22.1606 21.918 22.1068 21.6569 22C21.3957 21.8932 21.1585 21.7354 20.959 21.5358C20.7594 21.3363 20.6016 21.0991 20.4948 20.8379C20.388 20.5767 20.3342 20.2969 20.3366 20.0148C20.3391 19.7326 20.3977 19.4538 20.5091 19.1945C20.6205 18.9353 20.7823 18.7008 20.9853 18.5048L23.99 15.5L20.9853 12.4953C20.7823 12.2992 20.6205 12.0647 20.5091 11.8055C20.3977 11.5462 20.3391 11.2674 20.3366 10.9852C20.3342 10.7031 20.388 10.4233 20.4948 10.1621C20.6016 9.90094 20.7594 9.66368 20.959 9.46416C21.1585 9.26464 21.3957 9.10685 21.6569 9C21.918 8.89316 22.1979 8.83939 22.48 8.84184C22.7622 8.8443 23.041 8.90292 23.3003 9.01429C23.5595 9.12566 23.794 9.28754 23.99 9.4905L26.9948 12.4953L29.9995 9.4905C30.1956 9.28754 30.4301 9.12566 30.6893 9.01429C30.9486 8.90292 31.2274 8.8443 31.5096 8.84184C31.7917 8.83939 32.0715 8.89316 32.3327 9C32.5939 9.10685 32.8311 9.26464 33.0306 9.46416C33.2302 9.66368 33.3879 9.90094 33.4948 10.1621C33.6016 10.4233 33.6554 10.7031 33.653 10.9852C33.6505 11.2674 33.5919 11.5462 33.4805 11.8055C33.3691 12.0647 33.2073 12.2992 33.0043 12.4953L29.9995 15.5Z" fill="black"/>
</svg>
