<svg width="79" height="79" viewBox="0 0 79 79" fill="none" xmlns="http://www.w3.org/2000/svg">
<path d="M67.8906 8.64062H11.1094C9.74385 8.64062 8.64062 9.74385 8.64062 11.1094V67.8906C8.64062 69.2562 9.74385 70.3594 11.1094 70.3594H67.8906C69.2562 70.3594 70.3594 69.2562 70.3594 67.8906V11.1094C70.3594 9.74385 69.2562 8.64062 67.8906 8.64062ZM33.9607 59.0186H30.0416C29.8719 59.0186 29.6944 58.9337 29.5864 58.7948L26.8477 55.4389L24.1089 58.7948C24.0555 58.8648 23.9866 58.9214 23.9076 58.9602C23.8286 58.999 23.7417 59.019 23.6537 59.0186H19.7346C19.2254 59.0186 18.9477 58.4091 19.2871 58.0079L24.1243 52.0829L19.4028 46.3045C19.0711 45.9033 19.3488 45.2938 19.858 45.2938H23.7849C23.9546 45.2938 24.132 45.3787 24.24 45.5176L26.8631 48.727L29.4861 45.5176C29.6019 45.371 29.7639 45.2938 29.9413 45.2938H33.8604C34.3696 45.2938 34.6474 45.9033 34.3156 46.3045L29.5864 52.0752L34.4236 58.0002C34.7477 58.4091 34.4699 59.0186 33.9607 59.0186ZM34.5625 29.5479C34.5625 29.7176 34.4545 29.8564 34.3156 29.8564H29.0078V35.1565C29.0078 35.3031 28.8689 35.4111 28.6992 35.4111H24.9961C24.8264 35.4111 24.6875 35.3031 24.6875 35.1643V29.8564H19.3797C19.2408 29.8564 19.1328 29.7176 19.1328 29.5479V25.8447C19.1328 25.675 19.2408 25.5361 19.3797 25.5361H24.6875V20.2283C24.6875 20.0895 24.8264 19.9814 24.9961 19.9814H28.6992C28.8689 19.9814 29.0078 20.0895 29.0078 20.2283V25.5361H34.3079C34.4545 25.5361 34.5625 25.675 34.5625 25.8447V29.5479ZM59.8672 58.0156C59.8672 58.1854 59.7592 58.3242 59.6203 58.3242H44.6844C44.5455 58.3242 44.4375 58.1854 44.4375 58.0156V54.3125C44.4375 54.1428 44.5455 54.0039 44.6844 54.0039H59.6126C59.7592 54.0039 59.8672 54.1428 59.8672 54.3125V58.0156ZM59.8672 49.9922C59.8672 50.1619 59.7592 50.3008 59.6203 50.3008H44.6844C44.5455 50.3008 44.4375 50.1619 44.4375 49.9922V46.2891C44.4375 46.1193 44.5455 45.9805 44.6844 45.9805H59.6126C59.7592 45.9805 59.8672 46.1193 59.8672 46.2891V49.9922ZM59.8672 29.5479C59.8672 29.7176 59.7592 29.8564 59.6203 29.8564H44.6844C44.5455 29.8564 44.4375 29.7176 44.4375 29.5479V25.8447C44.4375 25.675 44.5455 25.5361 44.6844 25.5361H59.6126C59.7592 25.5361 59.8672 25.675 59.8672 25.8447V29.5479Z" fill="#EF4257"/>
</svg>
