<svg width="127" height="127" viewBox="0 0 127 127" fill="none" xmlns="http://www.w3.org/2000/svg">
<path d="M63.375 24.375C55.6615 24.375 48.1213 26.6623 41.7078 30.9477C35.2942 35.2331 30.2955 41.324 27.3437 48.4503C24.3919 55.5767 23.6196 63.4183 25.1244 70.9835C26.6292 78.5488 30.3436 85.4979 35.7978 90.9522C41.2521 96.4064 48.2012 100.121 55.7665 101.626C63.3317 103.13 71.1733 102.358 78.2997 99.4063C85.426 96.4545 91.5169 91.4558 95.8023 85.0422C100.088 78.6287 102.375 71.0885 102.375 63.375C102.363 53.0352 98.2505 43.1222 90.9392 35.8108C83.6278 28.4995 73.7148 24.3868 63.375 24.375ZM63.375 97.5C56.6257 97.5 50.028 95.4986 44.4162 91.7489C38.8043 87.9992 34.4305 82.6696 31.8476 76.4341C29.2648 70.1985 28.589 63.3371 29.9057 56.7175C31.2224 50.0979 34.4725 44.0174 39.245 39.245C44.0174 34.4725 50.0979 31.2224 56.7175 29.9057C63.3371 28.589 70.1985 29.2648 76.4341 31.8476C82.6696 34.4305 87.9992 38.8043 91.7489 44.4162C95.4986 50.028 97.5 56.6257 97.5 63.375C97.4897 72.4223 93.8911 81.0962 87.4936 87.4936C81.0962 93.8911 72.4223 97.4897 63.375 97.5V97.5ZM60.9375 7.3125V2.4375C60.9375 1.79103 61.1943 1.17105 61.6514 0.713928C62.1085 0.256808 62.7285 0 63.375 0C64.0215 0 64.6415 0.256808 65.0986 0.713928C65.5557 1.17105 65.8125 1.79103 65.8125 2.4375V7.3125C65.8125 7.95897 65.5557 8.57895 65.0986 9.03607C64.6415 9.49319 64.0215 9.75 63.375 9.75C62.7285 9.75 62.1085 9.49319 61.6514 9.03607C61.1943 8.57895 60.9375 7.95897 60.9375 7.3125ZM18.5616 22.0094C18.3352 21.783 18.1557 21.5143 18.0332 21.2185C17.9107 20.9227 17.8477 20.6057 17.8477 20.2856C17.8477 19.9654 17.9108 19.6484 18.0334 19.3527C18.1559 19.0569 18.3355 18.7882 18.5619 18.5619C19.0191 18.1047 19.6392 17.848 20.2857 17.848C20.6058 17.848 20.9228 17.9111 21.2186 18.0337C21.5143 18.1562 21.7831 18.3358 22.0094 18.5622L25.4566 22.0094C25.9138 22.4665 26.1706 23.0865 26.1706 23.733C26.1706 24.3795 25.9138 24.9995 25.4566 25.4566C24.9995 25.9138 24.3795 26.1706 23.733 26.1706C23.0865 26.1706 22.4665 25.9138 22.0094 25.4566L18.5616 22.0094ZM9.75 63.375C9.75 64.0215 9.49319 64.6415 9.03607 65.0986C8.57895 65.5557 7.95897 65.8125 7.3125 65.8125H2.4375C1.79103 65.8125 1.17105 65.5557 0.713928 65.0986C0.256808 64.6415 0 64.0215 0 63.375C0 62.7285 0.256808 62.1085 0.713928 61.6514C1.17105 61.1943 1.79103 60.9375 2.4375 60.9375H7.3125C7.95897 60.9375 8.57895 61.1943 9.03607 61.6514C9.49319 62.1085 9.75 62.7285 9.75 63.375ZM25.4566 101.293C25.683 101.52 25.8626 101.788 25.9851 102.084C26.1076 102.38 26.1706 102.697 26.1706 103.017C26.1706 103.337 26.1076 103.654 25.9851 103.95C25.8626 104.246 25.683 104.514 25.4566 104.741L22.0094 108.188C21.5523 108.645 20.9323 108.902 20.2858 108.902C19.6393 108.902 19.0193 108.645 18.5622 108.188C18.105 107.731 17.8482 107.111 17.8482 106.464C17.8482 105.818 18.105 105.198 18.5622 104.741L22.0094 101.293C22.4666 100.836 23.0866 100.58 23.733 100.58C24.3795 100.58 24.9994 100.836 25.4566 101.293V101.293ZM65.8125 119.438V124.312C65.8125 124.959 65.5557 125.579 65.0986 126.036C64.6415 126.493 64.0215 126.75 63.375 126.75C62.7285 126.75 62.1085 126.493 61.6514 126.036C61.1943 125.579 60.9375 124.959 60.9375 124.312V119.438C60.9375 118.791 61.1943 118.171 61.6514 117.714C62.1085 117.257 62.7285 117 63.375 117C64.0215 117 64.6415 117.257 65.0986 117.714C65.5557 118.171 65.8125 118.791 65.8125 119.438ZM108.188 104.741C108.415 104.967 108.594 105.236 108.717 105.532C108.839 105.827 108.902 106.144 108.902 106.464C108.902 106.785 108.839 107.102 108.717 107.397C108.594 107.693 108.415 107.962 108.188 108.188C107.962 108.414 107.693 108.594 107.397 108.717C107.101 108.839 106.784 108.902 106.464 108.902C106.144 108.902 105.827 108.839 105.531 108.716C105.236 108.594 104.967 108.414 104.741 108.188L101.293 104.741C100.836 104.283 100.579 103.663 100.579 103.017C100.579 102.37 100.836 101.75 101.293 101.293C101.75 100.836 102.37 100.579 103.017 100.579C103.663 100.579 104.283 100.836 104.741 101.293L108.188 104.741ZM126.75 63.375C126.75 64.0215 126.493 64.6415 126.036 65.0986C125.579 65.5557 124.959 65.8125 124.312 65.8125H119.438C118.791 65.8125 118.171 65.5557 117.714 65.0986C117.257 64.6415 117 64.0215 117 63.375C117 62.7285 117.257 62.1085 117.714 61.6514C118.171 61.1943 118.791 60.9375 119.438 60.9375H124.312C124.959 60.9375 125.579 61.1943 126.036 61.6514C126.493 62.1085 126.75 62.7285 126.75 63.375ZM101.294 25.4566C101.068 25.2303 100.888 24.9616 100.766 24.6658C100.643 24.3701 100.58 24.0531 100.58 23.733C100.58 23.4129 100.643 23.0959 100.766 22.8002C100.888 22.5045 101.068 22.2358 101.294 22.0094L104.741 18.5622C105.198 18.105 105.818 17.8482 106.464 17.8482C107.111 17.8482 107.731 18.105 108.188 18.5622C108.645 19.0193 108.902 19.6393 108.902 20.2858C108.902 20.9323 108.645 21.5523 108.188 22.0094L104.741 25.4566C104.283 25.9136 103.664 26.1703 103.017 26.1703C102.371 26.1703 101.751 25.9136 101.294 25.4566V25.4566Z" fill="#FFEA30"/>
<circle cx="62.875" cy="63.875" r="40.5" fill="url(#paint0_linear)"/>
<defs>
<linearGradient id="paint0_linear" x1="81.235" y1="104.375" x2="47.755" y2="50.915" gradientUnits="userSpaceOnUse">
<stop stop-color="#FF900E"/>
<stop offset="0.442708" stop-color="#FFC122"/>
<stop offset="1" stop-color="#FAFE3C"/>
</linearGradient>
</defs>
</svg>
