<svg width="71" height="71" viewBox="0 0 71 71" fill="none" xmlns="http://www.w3.org/2000/svg">
<g clip-path="url(#clip0)">
<path d="M33.9779 27.721C34.4661 26.2567 36.5339 26.2567 37.0221 27.721L39.8842 36.3165C40.5142 38.206 41.5757 39.9228 42.9845 41.3308C44.3932 42.7388 46.1106 43.7993 48.0004 44.4282L56.5914 47.2904C58.0558 47.7785 58.0558 49.8464 56.5914 50.3346L47.996 53.1967C46.1065 53.8267 44.3897 54.8882 42.9817 56.297C41.5737 57.7057 40.5132 59.4231 39.8842 61.3129L37.0221 69.9039C36.9168 70.2246 36.713 70.5038 36.4397 70.7018C36.1663 70.8997 35.8375 71.0063 35.5 71.0063C35.1625 71.0063 34.8336 70.8997 34.5603 70.7018C34.287 70.5038 34.0832 70.2246 33.9779 69.9039L31.1157 61.3085C30.4862 59.4195 29.4254 57.703 28.0174 56.295C26.6095 54.8871 24.893 53.8263 23.004 53.1967L14.4085 50.3346C14.0879 50.2293 13.8087 50.0255 13.6107 49.7522C13.4127 49.4788 13.3061 49.15 13.3061 48.8125C13.3061 48.475 13.4127 48.1461 13.6107 47.8728C13.8087 47.5995 14.0879 47.3957 14.4085 47.2904L23.004 44.4282C24.893 43.7987 26.6095 42.7379 28.0174 41.3299C29.4254 39.922 30.4862 38.2055 31.1157 36.3165L33.9779 27.721ZM16.8359 5.09423C16.8995 4.90206 17.0221 4.73484 17.1862 4.61631C17.3503 4.49778 17.5476 4.43399 17.75 4.43399C17.9524 4.43399 18.1497 4.49778 18.3138 4.61631C18.4779 4.73484 18.6005 4.90206 18.6641 5.09423L20.3814 10.2506C21.1491 12.5492 22.9507 14.3509 25.2494 15.1185L30.4057 16.8359C30.5979 16.8995 30.7651 17.0221 30.8837 17.1862C31.0022 17.3503 31.066 17.5476 31.066 17.75C31.066 17.9524 31.0022 18.1497 30.8837 18.3138C30.7651 18.4779 30.5979 18.6005 30.4057 18.6641L25.2494 20.3814C24.1157 20.7591 23.0856 21.3957 22.2406 22.2406C21.3957 23.0856 20.7591 24.1157 20.3814 25.2494L18.6641 30.4057C18.6005 30.5979 18.4779 30.7651 18.3138 30.8837C18.1497 31.0022 17.9524 31.066 17.75 31.066C17.5476 31.066 17.3503 31.0022 17.1862 30.8837C17.0221 30.7651 16.8995 30.5979 16.8359 30.4057L15.1185 25.2494C14.7408 24.1157 14.1043 23.0856 13.2593 22.2406C12.4144 21.3957 11.3843 20.7591 10.2506 20.3814L5.09423 18.6641C4.90206 18.6005 4.73484 18.4779 4.61631 18.3138C4.49779 18.1497 4.43399 17.9524 4.43399 17.75C4.43399 17.5476 4.49779 17.3503 4.61631 17.1862C4.73484 17.0221 4.90206 16.8995 5.09423 16.8359L10.2506 15.1185C11.3843 14.7408 12.4144 14.1043 13.2593 13.2593C14.1043 12.4144 14.7408 11.3843 15.1185 10.2506L16.8359 5.09423ZM48.2046 0.439294C48.2484 0.312942 48.3304 0.203379 48.4394 0.125836C48.5484 0.0482939 48.6788 0.00662613 48.8125 0.00662613C48.9462 0.00662613 49.0766 0.0482939 49.1856 0.125836C49.2945 0.203379 49.3766 0.312942 49.4204 0.439294L50.5653 3.87392C51.0756 5.40929 52.2782 6.61186 53.8136 7.12217L57.2482 8.26705C57.3745 8.31085 57.4841 8.39294 57.5616 8.50189C57.6392 8.61084 57.6808 8.74125 57.6808 8.87498C57.6808 9.00871 57.6392 9.13912 57.5616 9.24807C57.4841 9.35703 57.3745 9.43911 57.2482 9.48292L53.8136 10.6278C53.0569 10.8795 52.3694 11.3041 51.8055 11.868C51.2416 12.4319 50.817 13.1194 50.5653 13.876L49.4204 17.3107C49.3766 17.437 49.2945 17.5466 49.1856 17.6241C49.0766 17.7017 48.9462 17.7433 48.8125 17.7433C48.6788 17.7433 48.5484 17.7017 48.4394 17.6241C48.3304 17.5466 48.2484 17.437 48.2046 17.3107L47.0597 13.876C46.808 13.1194 46.3833 12.4319 45.8195 11.868C45.2556 11.3041 44.5681 10.8795 43.8114 10.6278L40.3812 9.48292C40.2549 9.43911 40.1453 9.35703 40.0678 9.24807C39.9902 9.13912 39.9486 9.00871 39.9486 8.87498C39.9486 8.74125 39.9902 8.61084 40.0678 8.50189C40.1453 8.39294 40.2549 8.31085 40.3812 8.26705L43.8159 7.12217C45.3512 6.61186 46.5538 5.40929 47.0641 3.87392L48.2046 0.443732V0.439294Z" fill="white"/>
</g>
<defs>
<clipPath id="clip0">
<rect width="71" height="71" fill="white"/>
</clipPath>
</defs>
</svg>
